<svg width="660" height="220" viewBox="0 0 350 115.61395525220888" class="looka-1j8o68f" xmlns="http://www.w3.org/2000/svg">
  <defs id="SvgjsDefs3283">
  </defs>
  <g id="SvgjsG3284" featurekey="nameFeature-0" transform="matrix(3.432718744044212,0,0,3.432718744044212,-7.826598638209933,-53.27579647894011)" fill="#ffffff">
    <path d="M2.28 40 l0 -24.48 l11.6 0 c4.56 0 8.44 3.44 8.44 8.04 c0 4.64 -4 8.04 -8.44 8.04 l-5.6 0 l0 8.4 l-6 0 z M13.88 21.08 l-5.6 0 l0 4.96 l5.6 0 c1.4 0 2.44 -1.08 2.44 -2.48 s-1.04 -2.48 -2.44 -2.48 z M31.04 30 l0 10 l-6 0 l0 -9.96 c0 -6.64 4.88 -10.24 11.04 -10.24 c0.2 0 0.48 0 0.76 0.04 s0.6 0.12 0.88 0.16 l0 5.8 c-0.2 -0.04 -0.44 -0.08 -0.72 -0.12 s-0.52 -0.08 -0.72 -0.08 c-1 0 -1.8 0.12 -2.48 0.32 c-1.12 0.4 -2.12 1.16 -2.48 2.36 c-0.2 0.52 -0.28 1.12 -0.28 1.72 z M49.199999999999996 34.64 c2.92 0 4.6 -1.72 4.6 -4.64 s-1.68 -4.64 -4.6 -4.64 s-4.6 1.72 -4.6 4.64 s1.68 4.64 4.6 4.64 z M49.199999999999996 40.2 c-6.16 0 -10.6 -4.08 -10.6 -10.2 c0 -6.32 4.6 -10.2 10.6 -10.2 c6.2 0 10.6 4.08 10.6 10.2 c0 6.28 -4.64 10.2 -10.6 10.2 z M71.32000000000001 34.24 l-4.2 5.76 l-6.6 0 l7.52 -10.28 l-7.12 -9.72 l6.6 0 l3.8 5.2 l3.8 -5.2 l6.6 0 l-7.08 9.72 l7.48 10.28 l-6.6 0 z M98.24000000000001 30 l0 -10 l6 0 l0 18.96 c0 6.36 -4.56 10.24 -10.6 10.24 c-2.12 0 -4.24 -0.2 -6.28 -0.88 l0 -6.16 c1.72 0.92 4.04 1.24 5.96 1.24 c2.16 0 3.88 -0.64 4.68 -2.72 c0.16 -0.56 0.24 -1.16 0.24 -1.76 l0 -0.92 c-1.36 1.52 -3.12 2.2 -5.12 2.2 c-5.68 0 -9.28 -4.88 -9.28 -10.2 l0 -10 l6 0 l0 10 c0 2.72 1.08 4.64 4 4.64 c2.84 0 4.4 -1.88 4.4 -4.64 z">
    </path>
  </g>
</svg>